<svg class="logo-lockup" width="178" height="31" viewBox="0 0 452 79" fill="none" xmlns="http://www.w3.org/2000/svg"><path d="M71.7953 31.7232C71.8075 31.9122 71.7796 32.1016 71.7134 32.279C71.6471 32.4564 71.5441 32.6177 71.411 32.7524C71.2779 32.8871 71.1178 32.9921 70.9412 33.0604C70.7646 33.1288 70.5756 33.159 70.3865 33.149H43.4159C43.226 33.1588 43.0363 33.1285 42.8589 33.0603C42.6815 32.9921 42.5204 32.8875 42.386 32.7531C42.2516 32.6187 42.1469 32.4576 42.0787 32.2802C42.0105 32.1028 41.9803 31.913 41.9901 31.7232V28.668C41.9803 28.4782 42.0105 28.2885 42.0787 28.1111C42.1469 27.9337 42.2516 27.7726 42.386 27.6382C42.5204 27.5038 42.6815 27.3991 42.8589 27.3309C43.0363 27.2627 43.226 27.2325 43.4159 27.2423H70.3525C70.5416 27.2323 70.7307 27.2625 70.9073 27.3308C71.0839 27.3992 71.244 27.5042 71.3771 27.6389C71.5101 27.7735 71.6132 27.9349 71.6794 28.1123C71.7457 28.2897 71.7736 28.4791 71.7613 28.668L71.7953 31.7232Z" fill="#E74C3D"></path><path d="M83.7274 40.5833C83.7399 40.7737 83.7116 40.9647 83.6444 41.1433C83.5771 41.322 83.4725 41.4842 83.3376 41.6192C83.2026 41.7541 83.0403 41.8587 82.8617 41.926C82.6831 41.9932 82.4921 42.0215 82.3016 42.009H49.0848C48.8951 42.0218 48.7047 41.9936 48.5269 41.9262C48.349 41.8588 48.1877 41.7539 48.0541 41.6186C47.9204 41.4833 47.8174 41.3208 47.7522 41.1421C47.6869 40.9635 47.661 40.7729 47.676 40.5833V37.4602C47.6635 37.2719 47.6914 37.0832 47.7578 36.9066C47.8241 36.73 47.9275 36.5696 48.0609 36.4362C48.1943 36.3028 48.3547 36.1995 48.5313 36.1331C48.7078 36.0668 48.8966 36.0389 49.0848 36.0514H82.0131C82.202 36.0391 82.3915 36.0671 82.5689 36.1333C82.7463 36.1995 82.9076 36.3026 83.0423 36.4357C83.177 36.5687 83.282 36.7289 83.3503 36.9054C83.4187 37.082 83.4489 37.2711 83.4389 37.4602L83.7274 40.5833Z" fill="#E74C3D"></path><path d="M92.8119 49.6641C92.8244 49.8545 92.7961 50.0455 92.7289 50.2241C92.6616 50.4027 92.557 50.565 92.4221 50.6999C92.2871 50.8349 92.1249 50.9395 91.9462 51.0067C91.7676 51.074 91.5766 51.1023 91.3862 51.0898H55.3348C55.145 51.1026 54.9547 51.0743 54.7769 51.007C54.599 50.9396 54.4377 50.8347 54.304 50.6994C54.1703 50.5641 54.0674 50.4016 54.0022 50.2229C53.9369 50.0443 53.911 49.8537 53.926 49.6641V46.5579C53.911 46.3683 53.9369 46.1777 54.0022 45.999C54.0674 45.8204 54.1703 45.6578 54.304 45.5226C54.4377 45.3873 54.599 45.2823 54.7769 45.215C54.9547 45.1476 55.145 45.1194 55.3348 45.1321H91.3862C91.5766 45.1197 91.7676 45.148 91.9462 45.2152C92.1249 45.2825 92.2871 45.3871 92.4221 45.522C92.557 45.657 92.6616 45.8192 92.7289 45.9979C92.7961 46.1765 92.8244 46.3675 92.8119 46.5579V49.6641Z" fill="#E74C3D"></path><path d="M92.8119 58.7617C92.8219 58.9508 92.7917 59.1398 92.7234 59.3164C92.655 59.493 92.5501 59.6531 92.4154 59.7862C92.2807 59.9193 92.1193 60.0223 91.9419 60.0886C91.7645 60.1548 91.5751 60.1827 91.3862 60.1705H55.3348C55.1466 60.183 54.9578 60.1551 54.7812 60.0888C54.6046 60.0224 54.4443 59.919 54.3109 59.7856C54.1775 59.6522 54.0741 59.4919 54.0077 59.3153C53.9414 59.1387 53.9135 58.9499 53.926 58.7617V55.6386C53.911 55.449 53.9369 55.2584 54.0022 55.0797C54.0674 54.901 54.1703 54.7385 54.304 54.6032C54.4377 54.4679 54.599 54.363 54.7769 54.2957C54.9547 54.2283 55.145 54.2 55.3348 54.2128H91.3862C91.5766 54.2003 91.7676 54.2287 91.9462 54.2959C92.1249 54.3631 92.2871 54.4677 92.4221 54.6027C92.557 54.7377 92.6616 54.8999 92.7289 55.0785C92.7961 55.2572 92.8244 55.4481 92.8119 55.6386V58.7617Z" fill="#E74C3D"></path><path d="M83.7319 67.5539C83.7417 67.7437 83.7115 67.9334 83.6433 68.1108C83.5751 68.2882 83.4704 68.4493 83.336 68.5837C83.2016 68.7181 83.0405 68.8228 82.8631 68.891C82.6857 68.9592 82.4959 68.9894 82.3061 68.9796H49.0893C48.9002 68.9896 48.7112 68.9594 48.5346 68.8911C48.358 68.8227 48.1979 68.7178 48.0648 68.5831C47.9317 68.4484 47.8287 68.287 47.7624 68.1096C47.6962 67.9322 47.6683 67.7428 47.6805 67.5539V64.4308C47.6683 64.2418 47.6962 64.0524 47.7624 63.875C47.8287 63.6976 47.9317 63.5363 48.0648 63.4016C48.1979 63.2669 48.358 63.1619 48.5346 63.0936C48.7112 63.0252 48.9002 62.995 49.0893 63.005H82.0176C82.2074 62.9953 82.3972 63.0255 82.5746 63.0937C82.752 63.1619 82.9131 63.2666 83.0475 63.4009C83.1818 63.5353 83.2865 63.6964 83.3547 63.8738C83.4229 64.0512 83.4531 64.241 83.4434 64.4308L83.7319 67.5539Z" fill="#E74C3D"></path><path d="M71.7953 76.6346C71.8076 76.8236 71.7797 77.013 71.7134 77.1904C71.6472 77.3678 71.5441 77.5291 71.4111 77.6638C71.278 77.7985 71.1179 77.9035 70.9413 77.9718C70.7647 78.0402 70.5756 78.0704 70.3866 78.0604H43.4159C43.2261 78.0701 43.0364 78.0399 42.859 77.9717C42.6816 77.9035 42.5205 77.7988 42.3861 77.6645C42.2517 77.5301 42.147 77.369 42.0788 77.1916C42.0106 77.0142 41.9804 76.8244 41.9901 76.6346V73.5115C41.9802 73.3224 42.0103 73.1334 42.0787 72.9568C42.147 72.7802 42.252 72.6201 42.3867 72.487C42.5214 72.3539 42.6828 72.2509 42.8602 72.1846C43.0375 72.1184 43.227 72.0905 43.4159 72.1027H70.3526C70.5408 72.0902 70.7296 72.1181 70.9062 72.1845C71.0828 72.2508 71.2431 72.3542 71.3765 72.4876C71.5099 72.621 71.6133 72.7813 71.6797 72.9579C71.746 73.1345 71.7739 73.3233 71.7614 73.5115L71.7953 76.6346Z" fill="#E74C3D"></path><path d="M20.7089 4.56583C20.6989 4.75492 20.7291 4.94398 20.7974 5.12057C20.8658 5.29715 20.9708 5.45727 21.1055 5.59035C21.2402 5.72344 21.4015 5.82649 21.5789 5.89273C21.7563 5.95896 21.9457 5.98687 22.1347 5.97462H49.0883C49.2779 5.98968 49.4685 5.96371 49.6472 5.89848C49.8259 5.83325 49.9884 5.73028 50.1237 5.5966C50.259 5.46291 50.3639 5.30165 50.4313 5.12378C50.4986 4.94591 50.5269 4.7556 50.5141 4.56583V1.44274C50.5266 1.25227 50.4983 1.06134 50.431 0.882697C50.3638 0.704053 50.2592 0.54182 50.1242 0.40685C49.9892 0.27188 49.827 0.167281 49.6484 0.100047C49.4697 0.0328138 49.2788 0.00449853 49.0883 0.0169884H22.1347C21.9448 0.00723515 21.7551 0.037415 21.5777 0.105616C21.4003 0.173816 21.2392 0.278494 21.1048 0.412885C20.9704 0.547275 20.8658 0.708381 20.7975 0.885779C20.7293 1.06318 20.6991 1.25294 20.7089 1.44274V4.56583Z" fill="#E74C3D"></path><path d="M9.07909 13.6295C9.06658 13.8178 9.09444 14.0065 9.16081 14.1831C9.22718 14.3597 9.33054 14.5201 9.46394 14.6535C9.59733 14.7869 9.7577 14.8902 9.93429 14.9566C10.1109 15.023 10.2996 15.0508 10.4879 15.0383H43.4162C43.6051 15.0506 43.7945 15.0227 43.9719 14.9564C44.1493 14.8902 44.3106 14.7871 44.4453 14.6541C44.58 14.521 44.685 14.3609 44.7534 14.1843C44.8217 14.0077 44.8519 13.8186 44.8419 13.6295V10.5064C44.8517 10.3166 44.8215 10.1269 44.7533 9.94951C44.6851 9.77211 44.5804 9.611 44.446 9.47661C44.3116 9.34222 44.1505 9.23755 43.9731 9.16935C43.7957 9.10114 43.606 9.07094 43.4162 9.08069H10.4879C10.2988 9.07071 10.1097 9.10089 9.93314 9.16924C9.75655 9.23759 9.59644 9.34257 9.46335 9.47726C9.33026 9.61195 9.22721 9.77331 9.16098 9.9507C9.09475 10.1281 9.06684 10.3175 9.07909 10.5064V13.6295Z" fill="#E74C3D"></path><path d="M-0.00294556 22.7102C-0.0154539 22.8985 0.0124055 23.0872 0.0787796 23.2638C0.145154 23.4404 0.248505 23.6008 0.381905 23.7342C0.515304 23.8676 0.675668 23.9709 0.852261 24.0373C1.02885 24.1037 1.21759 24.1315 1.40583 24.119H37.4572C37.6455 24.1315 37.8342 24.1037 38.0108 24.0373C38.1874 23.9709 38.3477 23.8676 38.4811 23.7342C38.6145 23.6008 38.7179 23.4404 38.7843 23.2638C38.8506 23.0872 38.8785 22.8985 38.866 22.7102V19.5872C38.8782 19.3982 38.8503 19.2088 38.7841 19.0314C38.7179 18.854 38.6148 18.6926 38.4817 18.558C38.3486 18.4233 38.1885 18.3183 38.012 18.2499C37.8354 18.1816 37.6463 18.1514 37.4572 18.1614H1.40583C1.21674 18.1514 1.02768 18.1816 0.851096 18.2499C0.67451 18.3183 0.51441 18.4233 0.381322 18.558C0.248233 18.6926 0.145181 18.854 0.0789479 19.0314C0.0127151 19.2088 -0.0151933 19.3982 -0.00294556 19.5872V22.7102Z" fill="#E74C3D"></path><path d="M-0.00305114 31.7232C-0.0152989 31.9122 0.0126095 32.1016 0.0788423 32.279C0.145075 32.4564 0.248127 32.6177 0.381216 32.7524C0.514305 32.8871 0.674404 32.9921 0.85099 33.0604C1.02758 33.1288 1.21664 33.159 1.40573 33.149H37.4571C37.6462 33.159 37.8353 33.1288 38.0118 33.0604C38.1884 32.9921 38.3485 32.8871 38.4816 32.7524C38.6147 32.6177 38.7178 32.4564 38.784 32.279C38.8502 32.1016 38.8781 31.9122 38.8659 31.7232V28.668C38.8781 28.4791 38.8502 28.2897 38.784 28.1123C38.7178 27.9349 38.6147 27.7735 38.4816 27.6389C38.3485 27.5042 38.1884 27.3992 38.0118 27.3308C37.8353 27.2625 37.6462 27.2323 37.4571 27.2423H1.40573C1.21664 27.2323 1.02758 27.2625 0.85099 27.3308C0.674404 27.3992 0.514305 27.5042 0.381216 27.6389C0.248127 27.7735 0.145075 27.9349 0.0788423 28.1123C0.0126095 28.2897 -0.0152989 28.4791 -0.00305114 28.668V31.7232Z" fill="#E74C3D"></path><path d="M9.08033 40.5833C9.06527 40.7729 9.09124 40.9635 9.15647 41.1421C9.22171 41.3208 9.32466 41.4833 9.45834 41.6186C9.59203 41.7539 9.7533 41.8588 9.93117 41.9262C10.109 41.9936 10.2993 42.0218 10.4891 42.009H43.4174C43.6079 42.0215 43.7988 41.9932 43.9774 41.926C44.1561 41.8587 44.3183 41.7541 44.4533 41.6192C44.5883 41.4842 44.6929 41.322 44.7601 41.1433C44.8273 40.9647 44.8556 40.7737 44.8432 40.5833V37.4602C44.8531 37.2711 44.823 37.082 44.7546 36.9054C44.6862 36.7289 44.5813 36.5687 44.4466 36.4357C44.3119 36.3026 44.1505 36.1995 43.9731 36.1333C43.7958 36.0671 43.6064 36.0391 43.4174 36.0514H10.4891C10.3009 36.0389 10.1121 36.0668 9.93554 36.1331C9.75894 36.1995 9.59858 36.3028 9.46518 36.4362C9.33178 36.5696 9.22843 36.73 9.16205 36.9066C9.09568 37.0832 9.06782 37.2719 9.08033 37.4602V40.5833Z" fill="#E74C3D"></path><path d="M20.7099 49.6639C20.6974 49.8544 20.7257 50.0453 20.793 50.224C20.8602 50.4026 20.9648 50.5648 21.0998 50.6998C21.2347 50.8348 21.397 50.9394 21.5756 51.0066C21.7543 51.0739 21.9452 51.1022 22.1357 51.0897H49.0893C49.2798 51.1022 49.4707 51.0739 49.6494 51.0066C49.828 50.9394 49.9903 50.8348 50.1252 50.6998C50.2602 50.5648 50.3648 50.4026 50.432 50.224C50.4993 50.0453 50.5276 49.8544 50.5151 49.6639V46.5578C50.5276 46.3673 50.4993 46.1764 50.432 45.9977C50.3648 45.8191 50.2602 45.6569 50.1252 45.5219C49.9903 45.3869 49.828 45.2823 49.6494 45.2151C49.4707 45.1479 49.2798 45.1195 49.0893 45.132H22.1357C21.9452 45.1195 21.7543 45.1479 21.5756 45.2151C21.397 45.2823 21.2347 45.3869 21.0998 45.5219C20.9648 45.6569 20.8602 45.8191 20.793 45.9977C20.7257 46.1764 20.6974 46.3673 20.7099 46.5578V49.6639Z" fill="#E74C3D"></path><path d="M128.288 56.7758C126.879 57.0013 125.453 57.0922 124.027 57.0474C121.101 57.2055 118.181 56.6216 115.541 55.35C114.601 54.7384 113.791 53.9464 113.159 53.02C112.527 52.0935 112.084 51.051 111.858 49.9525C111.202 46.3018 110.917 42.594 111.009 38.8859C110.917 35.1778 111.202 31.47 111.858 27.8193C112.027 26.7008 112.446 25.6349 113.084 24.7006C113.721 23.7662 114.561 22.9873 115.541 22.4218C117.261 21.2902 120.09 20.7244 124.027 20.7244C125.358 20.6762 126.69 20.773 127.999 21.013C129.115 21.2862 130.25 21.4735 131.394 21.5731V27.8193C128.559 27.5307 126.573 27.2422 125.708 27.2422C124.081 27.1978 122.457 27.3922 120.887 27.8193C120.039 28.1078 119.462 29.2281 119.19 30.6538C118.892 33.2905 118.796 35.946 118.901 38.5974C118.796 41.2543 118.892 43.9155 119.19 46.5579C119.26 47.1224 119.448 47.666 119.74 48.1541C120.032 48.6422 120.423 49.0639 120.887 49.3924C122.429 49.9491 124.079 50.1408 125.708 49.9525C127.71 49.8998 129.706 49.7127 131.682 49.3924V55.6386C130.648 56.2631 129.489 56.6514 128.288 56.7758Z" fill="black"></path><path d="M140.487 55.35C139.601 54.7812 138.842 54.0352 138.257 53.1589C137.673 52.2826 137.277 51.295 137.092 50.258C136.545 46.4994 136.357 42.6971 136.532 38.9029C136.497 35.1101 136.684 31.3186 137.092 27.5477C137.2 26.4863 137.565 25.4674 138.157 24.5798C138.749 23.6921 139.549 22.9629 140.487 22.4557C142.184 21.3185 145.307 21.0469 149.568 21.0469C152.66 20.8786 155.753 21.3584 158.648 22.4557C159.535 23.0246 160.294 23.7706 160.878 24.6469C161.462 25.5231 161.859 26.5108 162.043 27.5477C162.601 31.3053 162.789 35.1086 162.603 38.9029C162.647 42.6958 162.46 46.4879 162.043 50.258C161.879 51.3016 161.49 52.2971 160.904 53.1761C160.318 54.0551 159.548 54.7967 158.648 55.35C156.663 56.4873 153.828 56.7758 149.568 56.7758C145.307 57.0474 141.913 56.4873 140.487 55.35ZM153.251 49.664C153.629 49.3603 153.929 48.971 154.127 48.5283C154.325 48.0856 154.414 47.6022 154.388 47.118C154.683 44.3846 154.78 41.6333 154.677 38.8859C154.78 36.1385 154.683 33.3873 154.388 30.6538C154.117 29.2281 153.828 28.3794 153.251 28.1078C150.856 27.3378 148.28 27.3378 145.885 28.1078C145.507 28.4115 145.206 28.8008 145.009 29.2435C144.811 29.6863 144.721 30.1697 144.747 30.6538C144.452 33.3873 144.356 36.1385 144.459 38.8859C144.356 41.6333 144.452 44.3846 144.747 47.118C145.019 48.5438 145.307 49.3924 145.885 49.664C147.063 50.0933 148.314 50.2893 149.568 50.2411C150.825 50.4075 152.104 50.2071 153.251 49.664Z" fill="black"></path><path d="M186.467 56.4873L176.283 36.34H175.995V56.4873H168.34V21.2846H176.283L185.924 39.7346H186.213V21.2846H193.885V56.4873H186.467Z" fill="black"></path><path d="M205.769 56.4872V28.3284H197.537V21.5391H221.945V28.3284H213.713V56.4363L205.769 56.4872Z" fill="black"></path><path d="M225.643 56.4873V21.2846H246.639V27.8193H233.298V35.2027H244.653V41.7205H233.298V49.664H246.639V56.1988H225.643V56.4873Z" fill="black"></path><path d="M270.489 56.4873L260.305 36.34H260.016V56.4873H252.311V21.2846H260.271L269.912 39.7346H270.2V21.2846H277.855V56.4873H270.489Z" fill="black"></path><path d="M290.055 56.4872V28.3284H281.84V21.5391H306.281V28.3284H298.049V56.4363L290.055 56.4872Z" fill="black"></path><path d="M309.935 56.1987V49.9525C314.196 50.2411 317.03 50.5296 319.016 50.5296C320.156 50.6021 321.3 50.5049 322.411 50.2411C323.259 49.9525 323.819 49.9525 324.108 49.664C324.284 49.5339 324.427 49.3653 324.527 49.1711C324.627 48.9768 324.681 48.7622 324.685 48.5437V46.5578C324.685 45.4206 324.685 44.555 324.397 44.2834C324.18 43.8589 323.893 43.4743 323.548 43.1462C322.856 42.7505 322.07 42.551 321.273 42.5691L315.587 41.7204C314.509 41.6543 313.462 41.3375 312.528 40.7954C311.594 40.2532 310.799 39.5006 310.207 38.5973C309.048 36.4228 308.552 33.956 308.781 31.5025C308.729 29.16 309.217 26.837 310.207 24.7131C311.112 23.2284 312.522 22.1196 314.179 21.5901C316.295 20.9764 318.493 20.6902 320.696 20.7414C324.046 20.7162 327.386 21.0981 330.643 21.8786V28.1248C327.52 27.8363 324.957 27.5477 322.411 27.5477C320.777 27.4545 319.139 27.6499 317.573 28.1248C317.013 28.3964 317.013 28.6849 316.725 29.245C316.482 29.8829 316.389 30.5683 316.453 31.2479C316.364 31.9222 316.458 32.608 316.725 33.2338C317.013 33.5053 317.013 33.7939 317.302 34.0824C317.59 34.371 318.15 34.354 319.288 34.6426L325.245 35.4912C326.436 35.6611 327.587 36.0465 328.64 36.6284C329.599 37.2764 330.376 38.1587 330.897 39.1914C331.683 41.2732 332.068 43.4844 332.035 45.7092C332.152 48.2468 331.669 50.7764 330.626 53.0926C329.842 54.6336 328.528 55.8393 326.926 56.4872C324.907 57.1257 322.795 57.4127 320.679 57.3359C316.47 57.0474 312.77 56.4872 309.935 56.1987Z" fill="black"></path><path d="M342.863 56.4872V28.3284H334.631V21.5391H359.038V28.3284H350.806V56.4363L342.863 56.4872Z" fill="black"></path><path d="M380.323 56.4873L378.625 49.3925H368.119L366.421 56.4873H358.461L367.83 21.2846H378.897L388.266 56.4873H380.323ZM373.228 28.668L369.545 42.8577H376.639L373.228 28.668Z" fill="black"></path><path d="M408.124 56.7757C406.715 57.0012 405.289 57.0922 403.863 57.0473C400.937 57.2054 398.017 56.6216 395.377 55.35C394.397 54.7844 393.557 54.0055 392.92 53.0712C392.282 52.1368 391.863 51.0709 391.693 49.9525C391.038 46.3017 390.753 42.5939 390.845 38.8858C390.753 35.1778 391.038 31.47 391.693 27.8192C391.863 26.7008 392.282 25.6349 392.92 24.7005C393.557 23.7661 394.397 22.9873 395.377 22.4217C397.085 21.2901 399.914 20.7244 403.863 20.7244C405.194 20.6767 406.525 20.7734 407.835 21.0129C408.951 21.2861 410.086 21.4734 411.23 21.573V27.8192C408.395 27.5307 406.392 27.2421 405.544 27.2421C403.917 27.1977 402.293 27.3921 400.723 27.8192C400.255 28.1438 399.861 28.5645 399.569 29.0533C399.276 29.5421 399.091 30.0877 399.026 30.6537C398.728 33.2904 398.632 35.946 398.737 38.5973C398.632 41.2543 398.728 43.9154 399.026 46.5578C399.096 47.1223 399.283 47.666 399.576 48.154C399.868 48.6421 400.259 49.0639 400.723 49.3923C402.265 49.949 403.915 50.1407 405.544 49.9525C407.54 49.9008 409.53 49.7136 411.501 49.3923V55.6385C410.454 56.2206 409.31 56.606 408.124 56.7757Z" fill="black"></path><path d="M434.536 56.4873L426.593 42.009H424.319V56.4873H416.375V21.2846H424.319V35.2027H426.593L434.536 21.2846H443.023L432.839 38.0373L443.023 56.1988L434.536 56.4873Z" fill="black"></path><path d="M450.794 28.0739C450.041 28.8029 449.033 29.2104 447.985 29.2104C446.936 29.2104 445.929 28.8029 445.176 28.0739C444.806 27.692 444.516 27.2409 444.321 26.7465C444.126 26.2521 444.03 25.7241 444.04 25.1927C444.049 24.6613 444.163 24.1371 444.376 23.6499C444.588 23.1628 444.895 22.7223 445.278 22.3538C446.015 21.6556 446.995 21.272 448.01 21.2845C448.792 21.2955 449.553 21.536 450.199 21.9761C450.846 22.4161 451.348 23.0364 451.645 23.7597C451.941 24.4831 452.019 25.2776 451.867 26.0446C451.716 26.8116 451.343 27.5173 450.794 28.0739ZM445.702 22.9819C445.086 23.5991 444.741 24.4354 444.741 25.3072C444.741 26.179 445.086 27.0153 445.702 27.6325C446.003 27.9439 446.365 28.1904 446.765 28.3568C447.164 28.5232 447.594 28.606 448.027 28.6C448.458 28.6067 448.885 28.5241 449.283 28.3576C449.68 28.1911 450.038 27.9443 450.336 27.6325C450.951 27.0153 451.297 26.179 451.297 25.3072C451.297 24.4354 450.951 23.5991 450.336 22.9819C450.032 22.6703 449.669 22.4227 449.268 22.2536C448.867 22.0846 448.437 21.9975 448.002 21.9975C447.567 21.9975 447.136 22.0846 446.735 22.2536C446.335 22.4227 445.972 22.6703 445.668 22.9819H445.702ZM446.296 27.4967V23.1007H448.435C448.737 23.1139 449.033 23.1951 449.3 23.3383C449.491 23.4369 449.649 23.589 449.754 23.7759C449.86 23.9628 449.908 24.1764 449.894 24.3906C449.907 24.538 449.886 24.6863 449.833 24.8244C449.78 24.9625 449.696 25.0869 449.589 25.1884C449.366 25.3536 449.102 25.4536 448.825 25.4769C449.047 25.5255 449.26 25.6116 449.453 25.7315C449.585 25.8574 449.687 26.0111 449.751 26.1815C449.816 26.3518 449.842 26.5344 449.826 26.716V27.1233C449.826 27.1233 449.826 27.2082 449.826 27.2422C449.819 27.2871 449.819 27.333 449.826 27.3779V27.4967H448.859C448.843 27.2934 448.843 27.0891 448.859 26.8857C448.877 26.7051 448.877 26.5232 448.859 26.3426C448.829 26.2702 448.785 26.2045 448.73 26.1491C448.675 26.0938 448.609 26.0499 448.536 26.0201C448.407 26.0051 448.276 26.0051 448.146 26.0201H447.637V27.5816L446.296 27.4967ZM448.401 23.9663C448.189 23.8887 447.964 23.8541 447.739 23.8645H447.45V25.1544H447.908C448.13 25.1623 448.349 25.1031 448.536 24.9847C448.616 24.9236 448.678 24.843 448.716 24.7508C448.755 24.6586 448.769 24.5578 448.757 24.4585C448.777 24.3328 448.748 24.2042 448.675 24.0998C448.602 23.9953 448.492 23.9232 448.367 23.8984L448.401 23.9663Z" fill="black"></path></svg>